<svg width="127" height="23" viewBox="0 0 127 23" fill="none" xmlns="http://www.w3.org/2000/svg">
<path fill-rule="evenodd" clip-rule="evenodd" d="M9.93391 1.43143C7.6348 1.43143 5.4295 2.32825 3.80325 3.92515C2.17695 5.5221 1.26299 7.68838 1.26299 9.94753V18.3099C1.26272 18.3304 1.26657 18.3507 1.2744 18.3696C1.28222 18.3885 1.29377 18.4056 1.30829 18.4198C1.3228 18.4341 1.33997 18.4453 1.35875 18.4528C1.37753 18.4602 1.39758 18.4639 1.41774 18.4637L1.4259 18.4636L9.93391 18.4636C11.0724 18.4636 12.1997 18.2434 13.2516 17.8156C14.3035 17.3878 15.2593 16.7606 16.0646 15.9699C16.8698 15.1792 17.5087 14.2404 17.9446 13.2071C18.3805 12.1737 18.6048 11.0661 18.6048 9.94753C18.6048 8.82895 18.3805 7.72136 17.9446 6.68801C17.5087 5.65467 16.8698 4.71586 16.0646 3.92515C15.2593 3.13443 14.3035 2.50729 13.2516 2.07945C12.1997 1.65162 11.0724 1.43143 9.93391 1.43143ZM9.93391 19.6665H1.4293C1.24621 19.6683 1.06462 19.6344 0.895066 19.5667C0.724048 19.4984 0.568801 19.3973 0.438441 19.2693C0.308086 19.1413 0.205255 18.989 0.13593 18.8215C0.0671891 18.6555 0.0327494 18.4777 0.0345521 18.2986V9.94753C0.0345521 7.37043 1.0771 4.89854 2.9334 3.07574C4.78976 1.25289 7.30789 0.228516 9.93391 0.228516C11.2342 0.228516 12.5216 0.479997 13.7228 0.968559C14.924 1.45712 16.0153 2.17317 16.9344 3.07574C17.8536 3.97831 18.5826 5.04973 19.08 6.22877C19.5773 7.40781 19.8333 8.67145 19.8333 9.94753C19.8333 11.2236 19.5773 12.4873 19.08 13.6663C18.5826 14.8453 17.8536 15.9168 16.9344 16.8193C16.0153 17.7219 14.924 18.4379 13.7228 18.9265C12.5216 19.4151 11.2342 19.6665 9.93391 19.6665Z" fill="#00B37E"/>
<path fill-rule="evenodd" clip-rule="evenodd" d="M6.09015 8.75832C6.09015 8.42614 6.36515 8.15686 6.70437 8.15686H12.7599C13.0991 8.15686 13.3741 8.42614 13.3741 8.75832C13.3741 9.09049 13.0991 9.35978 12.7599 9.35978H6.70437C6.36515 9.35978 6.09015 9.09049 6.09015 8.75832Z" fill="#996DFF"/>
<path fill-rule="evenodd" clip-rule="evenodd" d="M6.09015 11.9296C6.09015 11.5974 6.36515 11.3281 6.70437 11.3281H12.7599C13.0991 11.3281 13.3741 11.5974 13.3741 11.9296C13.3741 12.2618 13.0991 12.531 12.7599 12.531H6.70437C6.36515 12.531 6.09015 12.2618 6.09015 11.9296Z" fill="#996DFF"/>
<path d="M92.2786 8.22319V10.0519H83.1003V8.22319H92.2786ZM83.4497 0.931806V17.8907H81.2017V0.931806H83.4497ZM94.2354 0.931806V17.8907H91.999V0.931806H94.2354Z" fill="#00B37E"/>
<path d="M103.134 18.1236C102.257 18.1236 101.461 17.9761 100.746 17.681C100.04 17.3782 99.4302 16.955 98.9177 16.4114C98.413 15.8679 98.0247 15.2234 97.7529 14.4779C97.4812 13.7325 97.3453 12.9172 97.3453 12.0319V11.5427C97.3453 10.5178 97.4967 9.60537 97.7995 8.80557C98.1024 7.998 98.5139 7.31468 99.0342 6.75559C99.5544 6.19651 100.145 5.77331 100.805 5.48601C101.465 5.1987 102.148 5.05505 102.855 5.05505C103.755 5.05505 104.532 5.21035 105.184 5.52095C105.844 5.83155 106.384 6.2664 106.803 6.82548C107.222 7.3768 107.533 8.02906 107.735 8.78227C107.937 9.52772 108.038 10.343 108.038 11.2283V12.195H98.6265V10.4362H105.883V10.2732C105.852 9.71408 105.735 9.17052 105.534 8.6425C105.339 8.11448 105.029 7.67963 104.602 7.33797C104.175 6.99631 103.592 6.82548 102.855 6.82548C102.365 6.82548 101.915 6.93031 101.503 7.13996C101.092 7.34186 100.739 7.64469 100.444 8.04848C100.148 8.45226 99.9194 8.94534 99.7563 9.52772C99.5932 10.1101 99.5117 10.7818 99.5117 11.5427V12.0319C99.5117 12.6299 99.5932 13.1928 99.7563 13.7208C99.9271 14.2411 100.172 14.6992 100.49 15.0953C100.816 15.4913 101.208 15.8019 101.667 16.0271C102.132 16.2523 102.66 16.3648 103.251 16.3648C104.012 16.3648 104.656 16.2095 105.184 15.8989C105.712 15.5883 106.174 15.1729 106.57 14.6527L107.875 15.6893C107.603 16.1008 107.257 16.493 106.838 16.8657C106.419 17.2384 105.902 17.5413 105.289 17.7742C104.683 18.0072 103.965 18.1236 103.134 18.1236Z" fill="#00B37E"/>
<path d="M112.895 0V17.8907H110.728V0H112.895Z" fill="#00B37E"/>
<path d="M118.509 7.7107V22.7361H116.342V5.288H118.323L118.509 7.7107ZM127 11.4845V11.7291C127 12.6454 126.891 13.4957 126.674 14.2799C126.456 15.0564 126.138 15.732 125.719 16.3066C125.307 16.8812 124.799 17.3277 124.193 17.6461C123.587 17.9644 122.892 18.1236 122.108 18.1236C121.308 18.1236 120.602 17.9916 119.988 17.7276C119.375 17.4636 118.854 17.0792 118.427 16.5745C118 16.0698 117.659 15.4641 117.402 14.7575C117.154 14.0509 116.983 13.2549 116.89 12.3697V11.0652C116.983 10.1334 117.158 9.29865 117.414 8.56097C117.67 7.82329 118.008 7.19432 118.427 6.67406C118.854 6.14604 119.371 5.74614 119.977 5.47436C120.582 5.19482 121.281 5.05505 122.073 5.05505C122.865 5.05505 123.568 5.21035 124.181 5.52095C124.795 5.82379 125.311 6.25863 125.73 6.82548C126.15 7.39233 126.464 8.07177 126.674 8.8638C126.891 9.64808 127 10.5216 127 11.4845ZM124.834 11.7291V11.4845C124.834 10.8555 124.768 10.2654 124.636 9.71408C124.504 9.15499 124.298 8.6658 124.018 8.24648C123.746 7.81941 123.397 7.48551 122.97 7.24479C122.543 6.99631 122.034 6.87207 121.444 6.87207C120.901 6.87207 120.427 6.96525 120.023 7.15161C119.627 7.33797 119.289 7.59034 119.01 7.9087C118.73 8.21931 118.501 8.5765 118.323 8.98028C118.152 9.3763 118.024 9.78785 117.938 10.2149V13.2316C118.093 13.7752 118.311 14.2877 118.59 14.7691C118.87 15.2428 119.243 15.6272 119.709 15.9222C120.175 16.2095 120.761 16.3532 121.467 16.3532C122.05 16.3532 122.551 16.2328 122.97 15.9921C123.397 15.7436 123.746 15.4059 124.018 14.9788C124.298 14.5517 124.504 14.0625 124.636 13.5112C124.768 12.9521 124.834 12.3581 124.834 11.7291Z" fill="#00B37E"/>
<path d="M36.6525 0.931806V17.8907H34.4394V0.931806H36.6525ZM42.1035 0.931806V2.77212H29V0.931806H42.1035Z" fill="#996DFF"/>
<path d="M50.3966 15.7359V9.24818C50.3966 8.75121 50.2957 8.32025 50.0938 7.9553C49.8996 7.58257 49.6046 7.29527 49.2085 7.09337C48.8125 6.89148 48.3233 6.79054 47.7409 6.79054C47.1974 6.79054 46.7198 6.88372 46.3083 7.07008C45.9045 7.25644 45.5861 7.50104 45.3532 7.80388C45.128 8.10671 45.0154 8.43285 45.0154 8.78227H42.8606C42.8606 8.3319 42.9771 7.88541 43.21 7.4428C43.443 7.00019 43.7769 6.60029 44.2117 6.2431C44.6543 5.87814 45.1824 5.59084 45.7958 5.38118C46.417 5.16376 47.1081 5.05505 47.8691 5.05505C48.7854 5.05505 49.5929 5.21035 50.2918 5.52095C50.9984 5.83155 51.5497 6.30134 51.9457 6.93031C52.3495 7.55151 52.5514 8.3319 52.5514 9.27147V15.1418C52.5514 15.5612 52.5863 16.0077 52.6562 16.4813C52.7339 16.955 52.8465 17.3627 52.994 17.7043V17.8907H50.746C50.6373 17.6422 50.5519 17.3122 50.4898 16.9006C50.4277 16.4813 50.3966 16.0931 50.3966 15.7359ZM50.7693 10.2499L50.7926 11.7641H48.6145C48.0011 11.7641 47.4536 11.8145 46.9722 11.9155C46.4908 12.0087 46.087 12.1523 45.7609 12.3464C45.4347 12.5406 45.1862 12.7852 45.0154 13.0802C44.8446 13.3675 44.7592 13.7053 44.7592 14.0936C44.7592 14.4896 44.8485 14.8507 45.0271 15.1768C45.2057 15.5029 45.4736 15.7631 45.8307 15.9572C46.1957 16.1435 46.6422 16.2367 47.1702 16.2367C47.8302 16.2367 48.4126 16.097 48.9174 15.8174C49.4221 15.5379 49.822 15.1962 50.1171 14.7924C50.4199 14.3886 50.583 13.9965 50.6063 13.616L51.5264 14.6527C51.4721 14.9788 51.3245 15.3399 51.0838 15.7359C50.8431 16.1319 50.5208 16.5124 50.1171 16.8773C49.721 17.2345 49.2474 17.5335 48.6961 17.7742C48.1525 18.0072 47.5391 18.1236 46.8557 18.1236C46.0016 18.1236 45.2523 17.9567 44.6078 17.6228C43.971 17.2889 43.4741 16.8424 43.1169 16.2833C42.7674 15.7165 42.5927 15.0836 42.5927 14.3848C42.5927 13.7092 42.7247 13.1152 42.9887 12.6027C43.2528 12.0824 43.6332 11.6515 44.1302 11.3098C44.6272 10.9604 45.2251 10.6964 45.9239 10.5178C46.6228 10.3392 47.4032 10.2499 48.2651 10.2499H50.7693Z" fill="#996DFF"/>
<path d="M63.2788 14.5478C63.2788 14.2372 63.2089 13.9499 63.0692 13.6859C62.9372 13.4141 62.6615 13.1695 62.2422 12.9521C61.8306 12.7269 61.2094 12.5328 60.3786 12.3697C59.6797 12.2222 59.0469 12.0475 58.48 11.8456C57.9209 11.6437 57.4434 11.3991 57.0474 11.1118C56.6591 10.8245 56.3602 10.4867 56.1505 10.0984C55.9408 9.7102 55.836 9.25594 55.836 8.73568C55.836 8.23872 55.9447 7.76893 56.1621 7.32633C56.3873 6.88372 56.7018 6.49158 57.1056 6.14992C57.5172 5.80826 58.0102 5.54036 58.5848 5.34624C59.1595 5.15211 59.8001 5.05505 60.5067 5.05505C61.5162 5.05505 62.3781 5.23364 63.0925 5.59084C63.8068 5.94803 64.3543 6.42558 64.7348 7.02349C65.1153 7.61363 65.3055 8.26978 65.3055 8.99193H63.1507C63.1507 8.6425 63.0459 8.30472 62.8362 7.97859C62.6343 7.64469 62.3354 7.36903 61.9393 7.15161C61.5511 6.93419 61.0735 6.82548 60.5067 6.82548C59.9088 6.82548 59.4235 6.91866 59.0507 7.10502C58.6858 7.28362 58.4179 7.51269 58.2471 7.79223C58.084 8.07177 58.0025 8.36684 58.0025 8.67745C58.0025 8.9104 58.0413 9.12005 58.1189 9.30641C58.2044 9.48501 58.3519 9.65196 58.5616 9.80726C58.7712 9.9548 59.0663 10.0946 59.4468 10.2266C59.8273 10.3586 60.3126 10.4906 60.9027 10.6226C61.9355 10.8555 62.7857 11.1351 63.4535 11.4612C64.1213 11.7873 64.6183 12.1872 64.9444 12.6609C65.2706 13.1346 65.4336 13.7092 65.4336 14.3848C65.4336 14.9361 65.3171 15.4408 65.0842 15.8989C64.859 16.3571 64.529 16.7531 64.0941 17.087C63.6671 17.4131 63.1546 17.6694 62.5567 17.8557C61.9665 18.0343 61.3026 18.1236 60.5649 18.1236C59.4545 18.1236 58.515 17.9256 57.7462 17.5296C56.9775 17.1336 56.3951 16.6211 55.9991 15.9921C55.6031 15.3632 55.4051 14.6992 55.4051 14.0004H57.5715C57.6026 14.5905 57.7734 15.0603 58.084 15.4097C58.3946 15.7514 58.7751 15.996 59.2255 16.1435C59.6758 16.2833 60.1223 16.3532 60.5649 16.3532C61.1551 16.3532 61.6482 16.2755 62.0442 16.1202C62.448 15.9649 62.7547 15.7514 62.9643 15.4796C63.174 15.2079 63.2788 14.8973 63.2788 14.5478Z" fill="#996DFF"/>
<path d="M70.4304 0V17.8907H68.264V0H70.4304ZM78.1295 5.288L72.6318 11.17L69.5569 14.3615L69.3821 12.0669L71.5835 9.43454L75.4971 5.288H78.1295ZM76.161 17.8907L71.6651 11.8805L72.7832 9.95868L78.7002 17.8907H76.161Z" fill="#996DFF"/>
</svg>
