<svg width="126" height="80" viewBox="0 0 126 80" fill="none" xmlns="http://www.w3.org/2000/svg">
<path d="M48.8377 29.5909V29.5908L48.8244 29.591C48.7916 29.5914 48.759 29.5853 48.7284 29.5728C48.6978 29.5603 48.6699 29.5418 48.6462 29.5181C48.6226 29.4944 48.6038 29.466 48.5911 29.4346C48.5783 29.4032 48.572 29.3694 48.5724 29.3353H48.5725V29.3221V15.4318C48.5725 11.6757 50.0605 8.07395 52.7082 5.41882C55.3559 2.76378 58.9463 1.27271 62.6894 1.27271C64.5429 1.27271 66.3783 1.63879 68.0908 2.35012C69.8034 3.06146 71.3596 4.10416 72.6706 5.41882C73.9816 6.73349 75.0217 8.29438 75.7314 10.0124C76.4411 11.7305 76.8064 13.572 76.8064 15.4318C76.8064 17.2916 76.4411 19.1331 75.7314 20.8512C75.0217 22.5692 73.9816 24.1301 72.6706 25.4448C71.3596 26.7594 69.8034 27.8021 68.0908 28.5135C66.3783 29.2248 64.5429 29.5909 62.6894 29.5909H48.8377Z" stroke="#00B37E" stroke-width="2" stroke-linecap="round" stroke-linejoin="round"/>
<path d="M57.4314 13.4545H67.2903" stroke="#996DFF" stroke-width="2" stroke-linecap="round" stroke-linejoin="round"/>
<path d="M57.4314 18.7273H67.2903" stroke="#996DFF" stroke-width="2" stroke-linecap="round" stroke-linejoin="round"/>
<path d="M81.2493 60.5585V62.9065H69.4645V60.5585H81.2493ZM69.9131 51.1964V72.9715H67.0267V51.1964H69.9131ZM83.7619 51.1964V72.9715H80.8904V51.1964H83.7619Z" fill="#00B37E"/>
<path d="M95.1878 73.2706C94.0612 73.2706 93.0392 73.0812 92.1219 72.7023C91.2146 72.3135 90.432 71.7701 89.7739 71.0722C89.1259 70.3743 88.6273 69.5467 88.2784 68.5896C87.9294 67.6324 87.7549 66.5856 87.7549 65.449V64.8208C87.7549 63.5047 87.9494 62.3332 88.3382 61.3063C88.7271 60.2694 89.2555 59.392 89.9235 58.6741C90.5915 57.9563 91.3492 57.4129 92.1967 57.044C93.0442 56.6751 93.9216 56.4907 94.8289 56.4907C95.9854 56.4907 96.9824 56.6901 97.8199 57.0889C98.6674 57.4877 99.3604 58.046 99.8988 58.7639C100.437 59.4718 100.836 60.3093 101.095 61.2764C101.354 62.2335 101.484 63.2804 101.484 64.417V65.6583H89.4V63.4001H98.7173V63.1907C98.6774 62.4728 98.5278 61.7749 98.2686 61.0969C98.0194 60.4189 97.6205 59.8606 97.0722 59.4219C96.5238 58.9832 95.776 58.7639 94.8289 58.7639C94.2007 58.7639 93.6225 58.8985 93.094 59.1677C92.5656 59.4269 92.112 59.8157 91.7331 60.3342C91.3542 60.8527 91.0601 61.4858 90.8507 62.2335C90.6413 62.9813 90.5367 63.8437 90.5367 64.8208V65.449C90.5367 66.2167 90.6413 66.9395 90.8507 67.6175C91.0701 68.2855 91.3841 68.8737 91.7929 69.3822C92.2117 69.8907 92.7152 70.2895 93.3034 70.5787C93.9016 70.8678 94.5796 71.0124 95.3373 71.0124C96.3144 71.0124 97.142 70.813 97.8199 70.4142C98.4979 70.0153 99.0912 69.4819 99.5996 68.8139L101.275 70.145C100.926 70.6734 100.482 71.1769 99.9436 71.6555C99.4052 72.134 98.7422 72.5229 97.9545 72.822C97.1769 73.1211 96.2546 73.2706 95.1878 73.2706Z" fill="#00B37E"/>
<path d="M107.72 50V72.9715H104.939V50H107.72Z" fill="#00B37E"/>
<path d="M114.929 59.9005V79.193H112.147V56.7898H114.69L114.929 59.9005ZM125.831 64.746V65.0601C125.831 66.2366 125.692 67.3283 125.413 68.3353C125.134 69.3324 124.725 70.1998 124.186 70.9376C123.658 71.6754 123.005 72.2487 122.227 72.6575C121.45 73.0662 120.557 73.2706 119.55 73.2706C118.523 73.2706 117.616 73.1011 116.828 72.7622C116.041 72.4232 115.373 71.9296 114.824 71.2816C114.276 70.6335 113.837 69.8558 113.508 68.9485C113.189 68.0412 112.97 67.0193 112.85 65.8827V64.2077C112.97 63.0112 113.194 61.9394 113.523 60.9922C113.852 60.0451 114.286 59.2375 114.824 58.5695C115.373 57.8915 116.036 57.378 116.813 57.029C117.591 56.6701 118.488 56.4907 119.505 56.4907C120.522 56.4907 121.425 56.6901 122.212 57.0889C123 57.4777 123.663 58.036 124.201 58.7639C124.74 59.4917 125.144 60.3641 125.413 61.3811C125.692 62.3881 125.831 63.5097 125.831 64.746ZM123.05 65.0601V64.746C123.05 63.9385 122.965 63.1807 122.796 62.4728C122.626 61.755 122.362 61.1268 122.003 60.5884C121.654 60.0401 121.205 59.6114 120.657 59.3023C120.109 58.9832 119.455 58.8237 118.698 58.8237C118 58.8237 117.392 58.9433 116.873 59.1826C116.365 59.4219 115.931 59.746 115.572 60.1547C115.213 60.5535 114.919 61.0122 114.69 61.5306C114.47 62.0391 114.306 62.5675 114.196 63.1159V66.9894C114.396 67.6873 114.675 68.3453 115.034 68.9635C115.393 69.5717 115.871 70.0652 116.469 70.4441C117.068 70.813 117.82 70.9974 118.728 70.9974C119.475 70.9974 120.118 70.8429 120.657 70.5338C121.205 70.2147 121.654 69.781 122.003 69.2327C122.362 68.6843 122.626 68.0562 122.796 67.3483C122.965 66.6304 123.05 65.8677 123.05 65.0601Z" fill="#00B37E"/>
<path d="M9.82571 51.1964V72.9715H6.98418V51.1964H9.82571ZM16.8249 51.1964V53.5594H0V51.1964H16.8249Z" fill="#996DFF"/>
<path d="M27.4731 70.2048V61.8746C27.4731 61.2365 27.3435 60.6832 27.0843 60.2146C26.835 59.736 26.4561 59.3671 25.9477 59.1079C25.4392 58.8486 24.811 58.719 24.0633 58.719C23.3654 58.719 22.7522 58.8387 22.2238 59.0779C21.7053 59.3172 21.2965 59.6313 20.9974 60.0201C20.7083 60.409 20.5637 60.8277 20.5637 61.2764H17.797C17.797 60.6981 17.9465 60.1248 18.2456 59.5565C18.5447 58.9882 18.9734 58.4747 19.5318 58.0161C20.1001 57.5475 20.7781 57.1786 21.5657 56.9094C22.3633 56.6302 23.2507 56.4907 24.2278 56.4907C25.4043 56.4907 26.4412 56.6901 27.3385 57.0889C28.2458 57.4877 28.9537 58.0909 29.4622 58.8985C29.9806 59.6961 30.2399 60.6981 30.2399 61.9045V69.442C30.2399 69.9804 30.2847 70.5537 30.3745 71.1619C30.4742 71.7701 30.6187 72.2936 30.8082 72.7322V72.9715H27.9218C27.7822 72.6525 27.6725 72.2287 27.5928 71.7003C27.513 71.1619 27.4731 70.6634 27.4731 70.2048ZM27.9517 63.1608L27.9816 65.105H25.1849C24.3973 65.105 23.6944 65.1698 23.0762 65.2994C22.4581 65.419 21.9396 65.6035 21.5209 65.8527C21.1021 66.102 20.7831 66.4161 20.5637 66.7949C20.3444 67.1638 20.2347 67.5975 20.2347 68.0961C20.2347 68.6045 20.3493 69.0682 20.5787 69.4869C20.808 69.9057 21.152 70.2397 21.6106 70.4889C22.0792 70.7282 22.6525 70.8479 23.3305 70.8479C24.1779 70.8479 24.9257 70.6684 25.5738 70.3095C26.2218 69.9505 26.7353 69.5118 27.1142 68.9934C27.503 68.4749 27.7124 67.9714 27.7423 67.4829L28.9238 68.8139C28.854 69.2327 28.6646 69.6963 28.3555 70.2048C28.0464 70.7133 27.6326 71.2018 27.1142 71.6704C26.6057 72.129 25.9975 72.5129 25.2896 72.822C24.5917 73.1211 23.804 73.2706 22.9267 73.2706C21.8299 73.2706 20.8678 73.0563 20.0403 72.6276C19.2227 72.1988 18.5846 71.6255 18.126 70.9077C17.6773 70.1798 17.453 69.3673 17.453 68.4699C17.453 67.6025 17.6225 66.8398 17.9615 66.1818C18.3005 65.5138 18.789 64.9604 19.4271 64.5217C20.0652 64.0731 20.8329 63.7341 21.7302 63.5047C22.6276 63.2754 23.6296 63.1608 24.7363 63.1608H27.9517Z" fill="#996DFF"/>
<path d="M44.0138 68.6793C44.0138 68.2805 43.9241 67.9116 43.7446 67.5726C43.5751 67.2237 43.2212 66.9096 42.6828 66.6304C42.1544 66.3413 41.3567 66.092 40.2899 65.8827C39.3926 65.6932 38.58 65.4689 37.8522 65.2097C37.1343 64.9504 36.5211 64.6364 36.0127 64.2675C35.5141 63.8986 35.1303 63.4649 34.8611 62.9664C34.5919 62.4678 34.4573 61.8846 34.4573 61.2166C34.4573 60.5785 34.5969 59.9753 34.876 59.407C35.1652 58.8387 35.569 58.3352 36.0874 57.8965C36.6159 57.4578 37.249 57.1138 37.9868 56.8645C38.7246 56.6153 39.5471 56.4907 40.4544 56.4907C41.7506 56.4907 42.8573 56.72 43.7745 57.1786C44.6918 57.6372 45.3947 58.2504 45.8832 59.0181C46.3718 59.7759 46.6161 60.6184 46.6161 61.5456H43.8493C43.8493 61.0969 43.7147 60.6632 43.4455 60.2445C43.1863 59.8157 42.8024 59.4618 42.2939 59.1826C41.7954 58.9035 41.1822 58.7639 40.4544 58.7639C39.6867 58.7639 39.0636 58.8835 38.585 59.1228C38.1164 59.3521 37.7724 59.6462 37.5531 60.0052C37.3437 60.3641 37.239 60.743 37.239 61.1418C37.239 61.4409 37.2889 61.7101 37.3886 61.9494C37.4982 62.1787 37.6877 62.3931 37.9569 62.5925C38.2261 62.7819 38.6049 62.9614 39.0935 63.1309C39.582 63.3004 40.2052 63.4699 40.9629 63.6393C42.2889 63.9385 43.3807 64.2974 44.2381 64.7161C45.0956 65.1349 45.7337 65.6484 46.1524 66.2565C46.5712 66.8647 46.7806 67.6025 46.7806 68.4699C46.7806 69.1778 46.631 69.8259 46.3319 70.4142C46.0428 71.0024 45.619 71.5109 45.0607 71.9396C44.5123 72.3584 43.8543 72.6874 43.0866 72.9267C42.3288 73.156 41.4764 73.2706 40.5292 73.2706C39.1034 73.2706 37.897 73.0164 36.91 72.5079C35.9229 71.9994 35.1752 71.3414 34.6667 70.5338C34.1582 69.7262 33.9039 68.8737 33.9039 67.9764H36.6857C36.7255 68.7342 36.9449 69.3374 37.3437 69.786C37.7425 70.2247 38.231 70.5388 38.8093 70.7282C39.3876 70.9077 39.9609 70.9974 40.5292 70.9974C41.2869 70.9974 41.9201 70.8977 42.4285 70.6983C42.947 70.4989 43.3408 70.2247 43.61 69.8758C43.8792 69.5268 44.0138 69.128 44.0138 68.6793Z" fill="#996DFF"/>
<path d="M53.1964 50V72.9715H50.4147V50H53.1964ZM63.082 56.7898L56.023 64.3423L52.0748 68.44L51.8505 65.4938L54.677 62.1139L59.702 56.7898H63.082ZM60.5545 72.9715L54.7817 65.2545L56.2174 62.7869L63.8148 72.9715H60.5545Z" fill="#996DFF"/>
</svg>
